<svg width="88" height="16" viewBox="0 0 88 16" fill="none" xmlns="http://www.w3.org/2000/svg">
<path d="M14.6312 6.11933C14.5452 5.86733 14.3178 5.68933 14.0525 5.66866L10.2518 5.36666L8.60716 1.72599C8.49982 1.48666 8.26182 1.33333 7.99982 1.33333C7.73782 1.33333 7.49982 1.48666 7.39249 1.72533L5.74782 5.36666L1.94716 5.66866C1.68649 5.68933 1.46182 5.86066 1.37316 6.10666C1.28449 6.35266 1.34716 6.628 1.53449 6.81066L4.34316 9.54866L3.34982 13.85C3.28849 14.116 3.39582 14.3927 3.62049 14.548C3.73516 14.6267 3.86716 14.6667 3.99982 14.6667C4.12849 14.6667 4.25782 14.6293 4.36982 14.5547L7.99982 12.1347L11.6298 14.5547C11.8618 14.7093 12.1665 14.7033 12.3932 14.5387C12.6185 14.374 12.7178 14.0853 12.6412 13.8173L11.4218 9.55066L14.4458 6.82933C14.6438 6.65066 14.7165 6.37199 14.6312 6.11933Z" fill="#FFBA08"/>
<path d="M32.6312 6.11933C32.5452 5.86733 32.3178 5.68933 32.0525 5.66866L28.2518 5.36666L26.6072 1.72599C26.4998 1.48666 26.2618 1.33333 25.9998 1.33333C25.7378 1.33333 25.4998 1.48666 25.3925 1.72533L23.7478 5.36666L19.9472 5.66866C19.6865 5.68933 19.4618 5.86066 19.3732 6.10666C19.2845 6.35266 19.3472 6.628 19.5345 6.81066L22.3432 9.54866L21.3498 13.85C21.2885 14.116 21.3958 14.3927 21.6205 14.548C21.7352 14.6267 21.8672 14.6667 21.9998 14.6667C22.1285 14.6667 22.2578 14.6293 22.3698 14.5547L25.9998 12.1347L29.6298 14.5547C29.8618 14.7093 30.1665 14.7033 30.3932 14.5387C30.6185 14.374 30.7178 14.0853 30.6412 13.8173L29.4218 9.55066L32.4458 6.82933C32.6438 6.65066 32.7165 6.37199 32.6312 6.11933Z" fill="#FFBA08"/>
<path d="M50.6312 6.11933C50.5452 5.86733 50.3178 5.68933 50.0525 5.66866L46.2518 5.36666L44.6072 1.72599C44.4998 1.48666 44.2618 1.33333 43.9998 1.33333C43.7378 1.33333 43.4998 1.48666 43.3925 1.72533L41.7478 5.36666L37.9472 5.66866C37.6865 5.68933 37.4618 5.86066 37.3732 6.10666C37.2845 6.35266 37.3472 6.628 37.5345 6.81066L40.3432 9.54866L39.3498 13.85C39.2885 14.116 39.3958 14.3927 39.6205 14.548C39.7352 14.6267 39.8672 14.6667 39.9998 14.6667C40.1285 14.6667 40.2578 14.6293 40.3698 14.5547L43.9998 12.1347L47.6298 14.5547C47.8618 14.7093 48.1665 14.7033 48.3932 14.5387C48.6185 14.374 48.7178 14.0853 48.6412 13.8173L47.4218 9.55066L50.4458 6.82933C50.6438 6.65066 50.7165 6.37199 50.6312 6.11933Z" fill="#FFBA08"/>
<path d="M68.6312 6.11933C68.5452 5.86733 68.3178 5.68933 68.0525 5.66866L64.2518 5.36666L62.6072 1.72599C62.4998 1.48666 62.2618 1.33333 61.9998 1.33333C61.7378 1.33333 61.4998 1.48666 61.3925 1.72533L59.7478 5.36666L55.9472 5.66866C55.6865 5.68933 55.4618 5.86066 55.3732 6.10666C55.2845 6.35266 55.3472 6.628 55.5345 6.81066L58.3432 9.54866L57.3498 13.85C57.2885 14.116 57.3958 14.3927 57.6205 14.548C57.7352 14.6267 57.8672 14.6667 57.9998 14.6667C58.1285 14.6667 58.2578 14.6293 58.3698 14.5547L61.9998 12.1347L65.6298 14.5547C65.8618 14.7093 66.1665 14.7033 66.3932 14.5387C66.6185 14.374 66.7178 14.0853 66.6412 13.8173L65.4218 9.55066L68.4458 6.82933C68.6438 6.65066 68.7165 6.37199 68.6312 6.11933Z" fill="#FFBA08"/>
<path d="M86.6312 6.11933C86.5452 5.86733 86.3178 5.68933 86.0525 5.66866L82.2518 5.36666L80.6072 1.72599C80.4998 1.48666 80.2618 1.33333 79.9998 1.33333C79.7378 1.33333 79.4998 1.48666 79.3925 1.72533L77.7478 5.36666L73.9472 5.66866C73.6865 5.68933 73.4618 5.86066 73.3732 6.10666C73.2845 6.35266 73.3472 6.628 73.5345 6.81066L76.3432 9.54866L75.3498 13.85C75.2885 14.116 75.3958 14.3927 75.6205 14.548C75.7352 14.6267 75.8672 14.6667 75.9998 14.6667C76.1285 14.6667 76.2578 14.6293 76.3698 14.5547L79.9998 12.1347L83.6298 14.5547C83.8618 14.7093 84.1665 14.7033 84.3932 14.5387C84.6185 14.374 84.7178 14.0853 84.6412 13.8173L83.4218 9.55066L86.4458 6.82933C86.6438 6.65066 86.7165 6.37199 86.6312 6.11933Z" fill="#FFBA08"/>
</svg>
